REM DIRINDEX 1\2,1\3,1\4,1\5
REM DIRNAME cjc093,folder01,folder02,folder03,folder04
TITLE ""
FILE "Round-13-300-301.mp3" MP3
  TRACK 01 AUDIO
    TITLE "0:"
    INDEX 01 00:00:00
  TRACK 02 AUDIO
    TITLE "5:cjc093_3293"
    INDEX 01 00:00:05
  TRACK 03 AUDIO
    TITLE "0:"
    INDEX 01 00:01:58
  TRACK 04 AUDIO
    TITLE "2:cjc093_3294"
    INDEX 01 00:02:30
  TRACK 05 AUDIO
    TITLE "0:"
    INDEX 01 00:03:45
  TRACK 06 AUDIO
    TITLE "3:cjc093_3295"
    INDEX 01 00:04:03
  TRACK 07 AUDIO
    TITLE "0:"
    INDEX 01 00:06:20
  TRACK 08 AUDIO
    TITLE "4:cjc093_3296"
    INDEX 01 00:06:28
  TRACK 09 AUDIO
    TITLE "0:"
    INDEX 01 00:09:57
  TRACK 10 AUDIO
    TITLE "2:cjc093_3297"
    INDEX 01 00:10:68
  TRACK 11 AUDIO
    TITLE "0:"
    INDEX 01 00:12:01
  TRACK 12 AUDIO
    TITLE "3:cjc093_3298"
    INDEX 01 00:12:44
  TRACK 13 AUDIO
    TITLE "0:"
    INDEX 01 00:14:51
  TRACK 14 AUDIO
    TITLE "4:cjc093_3299"
    INDEX 01 00:15:11
  TRACK 15 AUDIO
    TITLE "0:"
    INDEX 01 00:18:09
  TRACK 16 AUDIO
    TITLE "2:cjc093_3300"
    INDEX 01 00:19:22
  TRACK 17 AUDIO
    TITLE "0:"
    INDEX 01 00:20:18
  TRACK 18 AUDIO
    TITLE "3:cjc093_3301"
    INDEX 01 00:20:51
  TRACK 19 AUDIO
    TITLE "0:"
    INDEX 01 00:21:37
  TRACK 20 AUDIO
    TITLE "4:cjc093_3302"
    INDEX 01 00:21:64
  TRACK 21 AUDIO
    TITLE "0:"
    INDEX 01 00:25:21
  TRACK 22 AUDIO
    TITLE "2:cjc093_3303"
    INDEX 01 00:26:28
  TRACK 23 AUDIO
    TITLE "0:"
    INDEX 01 00:27:49
  TRACK 24 AUDIO
    TITLE "3:cjc093_3304"
    INDEX 01 00:28:12
  TRACK 25 AUDIO
    TITLE "0:"
    INDEX 01 00:30:34
  TRACK 26 AUDIO
    TITLE "4:cjc093_3305"
    INDEX 01 00:31:14
  TRACK 27 AUDIO
    TITLE "0:"
    INDEX 01 00:35:12
  TRACK 28 AUDIO
    TITLE "2:cjc093_3306"
    INDEX 01 00:36:25
  TRACK 29 AUDIO
    TITLE "0:"
    INDEX 01 00:37:30
  TRACK 30 AUDIO
    TITLE "3:cjc093_3307"
    INDEX 01 00:37:65
  TRACK 31 AUDIO
    TITLE "0:"
    INDEX 01 00:38:71
  TRACK 32 AUDIO
    TITLE "4:cjc093_3308"
    INDEX 01 00:39:37
  TRACK 33 AUDIO
    TITLE "0:"
    INDEX 01 00:42:23
  TRACK 34 AUDIO
    TITLE "3:cjc093_3309"
    INDEX 01 00:43:35
  TRACK 35 AUDIO
    TITLE "0:"
    INDEX 01 00:45:04
  TRACK 36 AUDIO
    TITLE "4:cjc093_3310"
    INDEX 01 00:45:28
  TRACK 37 AUDIO
    TITLE "0:"
    INDEX 01 00:48:10
  TRACK 38 AUDIO
    TITLE "2:cjc093_3311"
    INDEX 01 00:49:21
  TRACK 39 AUDIO
    TITLE "0:"
    INDEX 01 00:50:27
  TRACK 40 AUDIO
    TITLE "3:cjc093_3312"
    INDEX 01 00:50:56
  TRACK 41 AUDIO
    TITLE "0:"
    INDEX 01 00:51:56
  TRACK 42 AUDIO
    TITLE "4:cjc093_3313"
    INDEX 01 00:52:26
  TRACK 43 AUDIO
    TITLE "0:"
    INDEX 01 00:55:51
  TRACK 44 AUDIO
    TITLE "2:cjc093_3314"
    INDEX 01 00:56:65
  TRACK 45 AUDIO
    TITLE "0:"
    INDEX 01 00:57:66
  TRACK 46 AUDIO
    TITLE "3:cjc093_3315"
    INDEX 01 00:58:09
  TRACK 47 AUDIO
    TITLE "0:"
    INDEX 01 01:00:27
  TRACK 48 AUDIO
    TITLE "4:cjc093_3316"
    INDEX 01 01:00:41
  TRACK 49 AUDIO
    TITLE "0:"
    INDEX 01 01:03:49
  TRACK 50 AUDIO
    TITLE "2:cjc093_3317"
    INDEX 01 01:04:62
  TRACK 51 AUDIO
    TITLE "0:"
    INDEX 01 01:06:06
  TRACK 52 AUDIO
    TITLE "3:cjc093_3318"
    INDEX 01 01:06:26
  TRACK 53 AUDIO
    TITLE "0:"
    INDEX 01 01:07:23
  TRACK 54 AUDIO
    TITLE "4:cjc093_3319"
    INDEX 01 01:07:61
  TRACK 55 AUDIO
    TITLE "0:"
    INDEX 01 01:11:37
  TRACK 56 AUDIO
    TITLE "2:cjc093_3320"
    INDEX 01 01:12:48
  TRACK 57 AUDIO
    TITLE "0:"
    INDEX 01 01:13:67
  TRACK 58 AUDIO
    TITLE "3:cjc093_3321"
    INDEX 01 01:14:06
  TRACK 59 AUDIO
    TITLE "0:"
    INDEX 01 01:15:21
  TRACK 60 AUDIO
    TITLE "4:cjc093_3322"
    INDEX 01 01:15:42
  TRACK 61 AUDIO
    TITLE "0:"
    INDEX 01 01:19:36
  TRACK 62 AUDIO
    TITLE "2:cjc093_3323"
    INDEX 01 01:20:48
  TRACK 63 AUDIO
    TITLE "0:"
    INDEX 01 01:21:49
  TRACK 64 AUDIO
    TITLE "3:cjc093_3324"
    INDEX 01 01:22:07
  TRACK 65 AUDIO
    TITLE "0:"
    INDEX 01 01:23:15
  TRACK 66 AUDIO
    TITLE "4:cjc093_3325"
    INDEX 01 01:23:30
  TRACK 67 AUDIO
    TITLE "0:"
    INDEX 01 01:26:19
